<svg width="50" height="50" viewBox="0 0 50 50" fill="none" xmlns="http://www.w3.org/2000/svg">
<path d="M48.3098 9.8482L33.1602 24.9995L48.3098 40.15C50.5633 42.4043 50.5633 46.056 48.3098 48.3103C47.1839 49.4362 45.7077 49.9996 44.2323 49.9996C42.7544 49.9996 41.2781 49.4371 40.153 48.3103L25 33.158L9.8482 48.3101C8.72241 49.4361 7.2461 49.9995 5.76936 49.9995C4.29304 49.9995 2.81773 49.4369 1.69094 48.3101C-0.562499 46.0568 -0.562499 42.405 1.69094 40.1499L16.8402 24.9993L1.69008 9.8482C-0.56336 7.59476 -0.56336 3.94223 1.69008 1.68879C3.94309 -0.56293 7.59347 -0.56293 9.84734 1.68879L24.9999 16.8401L40.1513 1.68879C42.4056 -0.56293 46.0564 -0.56293 48.309 1.68879C50.5633 3.94223 50.5633 7.59476 48.3098 9.8482Z" fill="#FFD8E4"/>
</svg>
