<svg width="101" height="100" viewBox="0 0 101 100" fill="none" xmlns="http://www.w3.org/2000/svg">
<path d="M86.4118 11.9808H67.1628C66.2026 5.24761 59.1183 0 50.5384 0C41.9587 0 34.8755 5.2474 33.9153 11.9808H14.6652C6.8753 11.9808 0.538513 17.1066 0.538513 23.4057V23.9919C0.538513 28.8057 4.24507 32.9259 9.46656 34.6047V88.5751C9.46656 94.8745 15.8041 100 23.5935 100H77.4838C85.2734 100 91.6105 94.8741 91.6105 88.5751V34.6049C96.8317 32.9259 100.539 28.8057 100.539 23.9921V23.4059C100.539 17.1066 94.2012 11.9808 86.4118 11.9808ZM50.5384 5.41821C55.4182 5.41821 59.4913 8.2466 60.3926 11.9808H40.686C41.587 8.24639 45.6604 5.41821 50.5384 5.41821ZM84.9102 88.5751C84.9102 91.8871 81.5779 94.582 77.4835 94.582H23.5933C19.4989 94.582 16.1666 91.8869 16.1666 88.5751V35.4168H84.9102V88.5751ZM93.8383 23.9919C93.8383 27.3039 90.5059 29.9988 86.4115 29.9988H14.6652C10.5708 29.9988 7.23852 27.3039 7.23852 23.9919V23.4057C7.23852 20.0937 10.5708 17.3988 14.6652 17.3988H86.4118C90.5062 17.3988 93.8385 20.0937 93.8385 23.4057L93.8383 23.9919Z" fill="#FFD8E4"/>
<path d="M32.5772 87.6529C34.4274 87.6529 35.9272 86.4397 35.9272 84.9441V54.4414C35.9272 52.9456 34.4271 51.7322 32.5772 51.7322C30.7272 51.7322 29.2272 52.9456 29.2272 54.4414V84.9441C29.2269 86.4401 30.727 87.6529 32.5772 87.6529Z" fill="#FFD8E4"/>
<path d="M50.5384 87.6529C52.3886 87.6529 53.8886 86.4397 53.8886 84.9441V54.4414C53.8886 52.9456 52.3881 51.7322 50.5384 51.7322C48.6884 51.7322 47.1884 52.9456 47.1884 54.4414V84.9441C47.1884 86.4401 48.6882 87.6529 50.5384 87.6529Z" fill="#FFD8E4"/>
<path d="M68.4996 87.6529C70.3495 87.6529 71.8493 86.4397 71.8493 84.9441V54.4414C71.8493 52.9456 70.3492 51.7322 68.4996 51.7322C66.6491 51.7322 65.1493 52.9456 65.1493 54.4414V84.9441C65.149 86.4401 66.6496 87.6529 68.4996 87.6529Z" fill="#FFD8E4"/>
</svg>
