<svg width="40" height="38" viewBox="0 0 40 38" fill="none" xmlns="http://www.w3.org/2000/svg">
<path d="M39.3286 17.2087L33.2664 11.1465V4.14367C33.2664 2.87745 32.2404 1.85129 30.9723 1.85129C29.7071 1.85129 28.681 2.87745 28.681 4.14367V6.5612L24.1673 2.04725C21.9356 -0.183195 18.0555 -0.179239 15.8289 2.05129L0.671158 17.2087C-0.223638 18.1053 -0.223638 19.556 0.671158 20.4512C1.56636 21.3475 3.0199 21.3475 3.91477 20.4512L19.0711 5.29337C19.5648 4.80221 20.4351 4.80221 20.9262 5.29192L36.0851 20.4512C36.5346 20.8994 37.1206 21.1223 37.7065 21.1223C38.2936 21.1223 38.8806 20.8992 39.3287 20.4512C40.2238 19.5561 40.2238 18.1054 39.3286 17.2087Z" fill="#D0BCFF"/>
<path d="M20.7963 9.64486C20.356 9.20473 19.6429 9.20473 19.2038 9.64486L5.87103 22.9737C5.66054 23.1841 5.5412 23.4714 5.5412 23.7712V33.4928C5.5412 35.774 7.39086 37.6236 9.67202 37.6236H16.2731V27.4007H23.7256V37.6236H30.3268C32.6078 37.6236 34.4575 35.774 34.4575 33.4928V23.7712C34.4575 23.4714 34.3392 23.1841 34.1277 22.9737L20.7963 9.64486Z" fill="#D0BCFF"/>
</svg>
