<svg width="44" height="44" viewBox="0 0 44 44" fill="none" xmlns="http://www.w3.org/2000/svg">
<path d="M19.7778 7.51724L42 7.51923ZM19.7778 24.069L42 24.0709ZM19.7778 40.6207L42 40.6226ZM2 23.9156L5.4188 28.2069L13.1111 18.5517M2 7.36397L5.4188 11.6552L13.1111 2M5.33333 40.6207H5.35556ZM6.44444 40.6207C6.44444 41.3823 5.94698 42 5.33333 42C4.71969 42 4.22222 41.3823 4.22222 40.6207C4.22222 39.859 4.71969 39.2414 5.33333 39.2414C5.94698 39.2414 6.44444 39.859 6.44444 40.6207Z" fill="#D9D9D9"/>
<path d="M19.7778 7.51724L42 7.51923M19.7778 24.069L42 24.0709M19.7778 40.6207L42 40.6226M2 23.9156L5.4188 28.2069L13.1111 18.5517M2 7.36397L5.4188 11.6552L13.1111 2M5.33333 40.6207H5.35556M6.44444 40.6207C6.44444 41.3823 5.94698 42 5.33333 42C4.71969 42 4.22222 41.3823 4.22222 40.6207C4.22222 39.859 4.71969 39.2414 5.33333 39.2414C5.94698 39.2414 6.44444 39.859 6.44444 40.6207Z" stroke="#D0BCFF" stroke-width="3" stroke-linecap="round" stroke-linejoin="round"/>
</svg>
