<svg width="20" height="20" viewBox="0 0 20 20" fill="none" xmlns="http://www.w3.org/2000/svg">
<path d="M16.78 10.76C16.3 10.3 16.04 9.66002 16.04 9.00002C16.04 8.34002 16.3 7.72002 16.78 7.24002C16.86 7.16002 16.94 7.10002 17.04 7.02002C17.18 6.92002 17.22 6.74002 17.18 6.58002C17.02 6.00002 16.78 5.44002 16.5 4.92002C16.42 4.78002 16.26 4.70002 16.1 4.72002C15.96 4.74002 15.86 4.74002 15.76 4.74002C14.38 4.74002 13.26 3.62002 13.26 2.26002C13.26 2.16002 13.26 2.04002 13.28 1.92002C13.3 1.76002 13.22 1.60002 13.08 1.52002C12.56 1.24002 12 1.00002 11.42 0.840019C11.26 0.800019 11.08 0.860019 10.98 0.980019C10.9 1.08002 10.82 1.18002 10.76 1.24002C10.28 1.70002 9.66 1.96002 9 1.96002C8.34 1.96002 7.7 1.70002 7.24 1.24002C7.16 1.16002 7.1 1.08002 7.02 0.980019C6.92 0.840019 6.74 0.800019 6.58 0.840019C6 1.02002 5.44 1.24002 4.92 1.52002C4.78 1.60002 4.7 1.76002 4.72 1.92002C4.74 2.06002 4.74 2.16002 4.74 2.26002C4.74 3.64002 3.62 4.74002 2.24 4.74002C2.14 4.74002 2.02 4.74002 1.9 4.72002C1.74 4.70002 1.58 4.78002 1.5 4.92002C1.22 5.44002 0.979999 6.00002 0.819999 6.58002C0.779999 6.74002 0.819999 6.92002 0.959999 7.02002C1.08 7.10002 1.16 7.18002 1.22 7.24002C2.2 8.20002 2.2 9.78002 1.22 10.76C1.14 10.84 1.06 10.9 0.959999 10.98C0.819999 11.08 0.779999 11.26 0.819999 11.42C0.999999 12 1.22 12.56 1.5 13.08C1.58 13.22 1.74 13.3 1.9 13.28C2.04 13.26 2.14 13.26 2.24 13.26C3.62 13.26 4.74 14.38 4.74 15.74C4.74 15.84 4.74 15.96 4.72 16.08C4.7 16.24 4.78 16.4 4.92 16.48C5.44 16.76 6 17 6.58 17.16C6.74 17.2 6.92 17.16 7.02 17.02C7.1 16.92 7.18 16.82 7.24 16.76C7.72 16.3 8.34 16.04 9 16.04C9.66 16.04 10.3 16.3 10.76 16.76C10.84 16.84 10.9 16.92 10.98 17.02C11.06 17.12 11.18 17.18 11.3 17.18C11.34 17.18 11.38 17.18 11.42 17.16C12 16.98 12.56 16.76 13.08 16.48C13.22 16.4 13.3 16.24 13.28 16.08C13.26 15.94 13.26 15.84 13.26 15.74C13.26 14.36 14.38 13.26 15.76 13.26C15.86 13.26 15.98 13.26 16.1 13.28C16.26 13.3 16.42 13.22 16.5 13.08C16.78 12.56 17.02 12 17.18 11.42C17.22 11.26 17.18 11.08 17.04 10.98C16.94 10.9 16.84 10.84 16.78 10.76ZM15.92 12.46H15.74C13.92 12.46 12.44 13.94 12.44 15.74V15.92C12.12 16.08 11.78 16.22 11.42 16.34L11.3 16.22C10.68 15.6 9.86 15.26 8.98 15.26C8.1 15.26 7.28 15.6 6.66 16.22L6.54 16.34C6.2 16.22 5.86 16.08 5.52 15.92V15.74C5.52 13.92 4.04 12.46 2.22 12.46H2.04C1.88 12.14 1.74 11.8 1.62 11.44L1.74 11.32C3.02 10.04 3.02 7.96002 1.74 6.66002L1.62 6.54002C1.74 6.20002 1.88 5.86002 2.04 5.52002H2.22C4.04 5.52002 5.52 4.04002 5.52 2.24002V2.06002C5.84 1.90002 6.18 1.76002 6.54 1.64002L6.66 1.76002C7.28 2.38002 8.1 2.72002 8.98 2.72002C9.86 2.72002 10.68 2.38002 11.3 1.76002L11.42 1.64002C11.76 1.76002 12.1 1.90002 12.44 2.06002V2.24002C12.44 4.06002 13.92 5.52002 15.74 5.52002H15.92C16.08 5.84002 16.22 6.18002 16.34 6.54002L16.22 6.66002C15.6 7.28002 15.26 8.10002 15.26 8.98002C15.26 9.86002 15.6 10.68 16.22 11.3L16.34 11.42C16.22 11.8 16.08 12.14 15.92 12.46ZM9 4.24002C6.38 4.24002 4.24 6.38002 4.24 9.00002C4.24 11.62 6.38 13.76 9 13.76C11.62 13.76 13.76 11.62 13.76 9.00002C13.76 6.38002 11.62 4.24002 9 4.24002ZM9 12.96C6.82 12.96 5.04 11.18 5.04 9.00002C5.04 6.82002 6.82 5.04002 9 5.04002C11.18 5.04002 12.96 6.82002 12.96 9.00002C12.96 11.18 11.18 12.96 9 12.96Z" fill="#FFD8E4"/>
</svg>
